<svg xmlns="http://www.w3.org/2000/svg" xmlns:xlink="http://www.w3.org/1999/xlink" contentStyleType="text/css" data-diagram-type="DESCRIPTION" height="1005px" preserveAspectRatio="none" style="width:1010px;height:1005px;background:#FFFFFF;" version="1.1" viewBox="0 0 1010 1005" width="1010px" zoomAndPan="magnify"><title>Microservice Architecture Diagram</title><defs/><g><g class="title" data-source-line="13"><text fill="#000000" font-family="sans-serif" font-size="14" font-weight="bold" lengthAdjust="spacing" textLength="274.9277" x="360.8118" y="22.9951">Microservice Architecture Diagram</text></g><!--cluster Clients--><g class="cluster" data-entity="Clients" data-source-line="15" data-uid="ent0002" id="cluster_Clients"><path d="M224.5,43.2969 L279.8594,43.2969 A3.75,3.75 0 0 1 282.3594,45.7969 L289.3594,65.5938 L554.5,65.5938 A2.5,2.5 0 0 1 557,68.0938 L557,170.6869 A2.5,2.5 0 0 1 554.5,173.1869 L224.5,173.1869 A2.5,2.5 0 0 1 222,170.6869 L222,45.7969 A2.5,2.5 0 0 1 224.5,43.2969" fill="none" style="stroke:#000000;stroke-width:1.5;"/><line style="stroke:#000000;stroke-width:1.5;" x1="222" x2="289.3594" y1="65.5938" y2="65.5938"/><text fill="#000000" font-family="sans-serif" font-size="14" font-weight="bold" lengthAdjust="spacing" textLength="54.3594" x="226" y="58.292">Clients</text></g><!--cluster Core Services--><g class="cluster" data-entity="Core Services" data-source-line="20" data-uid="ent0005" id="cluster_Core Services"><path d="M327.5,222.1869 L436.2002,222.1869 A3.75,3.75 0 0 1 438.7002,224.6869 L445.7002,244.4838 L782.5,244.4838 A2.5,2.5 0 0 1 785,246.9838 L785,661.3569 A2.5,2.5 0 0 1 782.5,663.8569 L327.5,663.8569 A2.5,2.5 0 0 1 325,661.3569 L325,224.6869 A2.5,2.5 0 0 1 327.5,222.1869" fill="none" style="stroke:#000000;stroke-width:1.5;"/><line style="stroke:#000000;stroke-width:1.5;" x1="325" x2="445.7002" y1="244.4838" y2="244.4838"/><text fill="#000000" font-family="sans-serif" font-size="14" font-weight="bold" lengthAdjust="spacing" textLength="107.7002" x="329" y="237.182">Core Services</text></g><!--cluster Support Services--><g class="cluster" data-entity="Support Services" data-source-line="26" data-uid="ent0009" id="cluster_Support Services"><path d="M8.5,712.8569 L144.2158,712.8569 A3.75,3.75 0 0 1 146.7158,715.3569 L153.7158,735.1538 L457.5,735.1538 A2.5,2.5 0 0 1 460,737.6538 L460,996.1369 A2.5,2.5 0 0 1 457.5,998.6369 L8.5,998.6369 A2.5,2.5 0 0 1 6,996.1369 L6,715.3569 A2.5,2.5 0 0 1 8.5,712.8569" fill="none" style="stroke:#000000;stroke-width:1.5;"/><line style="stroke:#000000;stroke-width:1.5;" x1="6" x2="153.7158" y1="735.1538" y2="735.1538"/><text fill="#000000" font-family="sans-serif" font-size="14" font-weight="bold" lengthAdjust="spacing" textLength="134.7158" x="10" y="727.852">Support Services</text></g><!--entity WC--><g class="entity" data-entity="WC" data-source-line="16" data-uid="ent0003" id="entity_WC"><rect fill="#E1F5FE" height="78.8906" rx="2.5" ry="2.5" style="stroke:#01579B;stroke-width:2;" width="141.8623" x="238.07" y="78.2969"/><rect fill="#E1F5FE" height="10" style="stroke:#01579B;stroke-width:2;" width="15" x="359.9323" y="83.2969"/><rect fill="#E1F5FE" height="2" style="stroke:#01579B;stroke-width:2;" width="4" x="357.9323" y="85.2969"/><rect fill="#E1F5FE" height="2" style="stroke:#01579B;stroke-width:2;" width="4" x="357.9323" y="89.2969"/><text fill="#000000" font-family="sans-serif" font-size="14" font-style="italic" lengthAdjust="spacing" textLength="57.6611" x="275.1706" y="111.292">&#171;Client&#187;</text><text fill="#000000" font-family="sans-serif" font-size="14" lengthAdjust="spacing" textLength="76.3232" x="253.07" y="127.5889">Web Client</text><text fill="#000000" font-family="sans-serif" font-size="14" lengthAdjust="spacing" textLength="101.8623" x="253.07" y="143.8857">Browser/React</text></g><!--entity GC--><g class="entity" data-entity="GC" data-source-line="17" data-uid="ent0004" id="entity_GC"><rect fill="#E1F5FE" height="78.8906" rx="2.5" ry="2.5" style="stroke:#01579B;stroke-width:2;" width="126.6592" x="414.67" y="78.2969"/><rect fill="#E1F5FE" height="10" style="stroke:#01579B;stroke-width:2;" width="15" x="521.3292" y="83.2969"/><rect fill="#E1F5FE" height="2" style="stroke:#01579B;stroke-width:2;" width="4" x="519.3292" y="85.2969"/><rect fill="#E1F5FE" height="2" style="stroke:#01579B;stroke-width:2;" width="4" x="519.3292" y="89.2969"/><text fill="#000000" font-family="sans-serif" font-size="14" font-style="italic" lengthAdjust="spacing" textLength="57.6611" x="444.169" y="111.292">&#171;Client&#187;</text><text fill="#000000" font-family="sans-serif" font-size="14" lengthAdjust="spacing" textLength="86.6592" x="429.67" y="127.5889">Game Client</text><text fill="#000000" font-family="sans-serif" font-size="14" lengthAdjust="spacing" textLength="73.2402" x="429.67" y="143.8857">Agent App</text></g><!--entity A--><g class="entity" data-entity="A" data-source-line="21" data-uid="ent0006" id="entity_A"><rect fill="#F3E5F5" height="78.8906" rx="2.5" ry="2.5" style="stroke:#4A148C;stroke-width:2;" width="143.582" x="341.21" y="257.1869"/><rect fill="#F3E5F5" height="10" style="stroke:#4A148C;stroke-width:2;" width="15" x="464.792" y="262.1869"/><rect fill="#F3E5F5" height="2" style="stroke:#4A148C;stroke-width:2;" width="4" x="462.792" y="264.1869"/><rect fill="#F3E5F5" height="2" style="stroke:#4A148C;stroke-width:2;" width="4" x="462.792" y="268.1869"/><text fill="#000000" font-family="sans-serif" font-size="14" font-style="italic" lengthAdjust="spacing" textLength="101.582" x="357.21" y="290.182">&#171;CoreService&#187;</text><text fill="#000000" font-family="sans-serif" font-size="14" lengthAdjust="spacing" textLength="89.0039" x="362.084" y="306.4789">Auth Service</text><text fill="#000000" font-family="sans-serif" font-size="14" lengthAdjust="spacing" textLength="91.834" x="362.084" y="322.7757">Users &amp; Auth</text></g><!--entity T--><g class="entity" data-entity="T" data-source-line="22" data-uid="ent0007" id="entity_T"><rect fill="#F3E5F5" height="78.8906" rx="2.5" ry="2.5" style="stroke:#4A148C;stroke-width:2;" width="247.6143" x="521.19" y="413.0769"/><rect fill="#F3E5F5" height="10" style="stroke:#4A148C;stroke-width:2;" width="15" x="748.8043" y="418.0769"/><rect fill="#F3E5F5" height="2" style="stroke:#4A148C;stroke-width:2;" width="4" x="746.8043" y="420.0769"/><rect fill="#F3E5F5" height="2" style="stroke:#4A148C;stroke-width:2;" width="4" x="746.8043" y="424.0769"/><text fill="#000000" font-family="sans-serif" font-size="14" font-style="italic" lengthAdjust="spacing" textLength="101.582" x="589.2061" y="446.072">&#171;CoreService&#187;</text><text fill="#000000" font-family="sans-serif" font-size="14" lengthAdjust="spacing" textLength="142.0029" x="536.19" y="462.3689">Tournament Service</text><text fill="#000000" font-family="sans-serif" font-size="14" lengthAdjust="spacing" textLength="207.6143" x="536.19" y="478.6657">Tournaments &amp; Matchmaking</text></g><!--entity G--><g class="entity" data-entity="G" data-source-line="23" data-uid="ent0008" id="entity_G"><rect fill="#F3E5F5" height="78.8906" rx="2.5" ry="2.5" style="stroke:#4A148C;stroke-width:2;" width="143.582" x="341.21" y="568.9669"/><rect fill="#F3E5F5" height="10" style="stroke:#4A148C;stroke-width:2;" width="15" x="464.792" y="573.9669"/><rect fill="#F3E5F5" height="2" style="stroke:#4A148C;stroke-width:2;" width="4" x="462.792" y="575.9669"/><rect fill="#F3E5F5" height="2" style="stroke:#4A148C;stroke-width:2;" width="4" x="462.792" y="579.9669"/><text fill="#000000" font-family="sans-serif" font-size="14" font-style="italic" lengthAdjust="spacing" textLength="101.582" x="357.21" y="601.962">&#171;CoreService&#187;</text><text fill="#000000" font-family="sans-serif" font-size="14" lengthAdjust="spacing" textLength="97.8701" x="359.066" y="618.2589">Game Service</text><text fill="#000000" font-family="sans-serif" font-size="14" lengthAdjust="spacing" textLength="82.9678" x="359.066" y="634.5557">Game Logic</text></g><!--entity R--><g class="entity" data-entity="R" data-source-line="27" data-uid="ent0010" id="entity_R"><rect fill="#E8F5E8" height="78.8906" rx="2.5" ry="2.5" style="stroke:#1B5E20;stroke-width:2;" width="208.7725" x="235.61" y="747.8569"/><rect fill="#E8F5E8" height="10" style="stroke:#1B5E20;stroke-width:2;" width="15" x="424.3825" y="752.8569"/><rect fill="#E8F5E8" height="2" style="stroke:#1B5E20;stroke-width:2;" width="4" x="422.3825" y="754.8569"/><rect fill="#E8F5E8" height="2" style="stroke:#1B5E20;stroke-width:2;" width="4" x="422.3825" y="758.8569"/><text fill="#000000" font-family="sans-serif" font-size="14" font-style="italic" lengthAdjust="spacing" textLength="124.2158" x="272.8883" y="780.852">&#171;SupportService&#187;</text><text fill="#000000" font-family="sans-serif" font-size="14" lengthAdjust="spacing" textLength="101.6367" x="250.61" y="797.1489">Rating Service</text><text fill="#000000" font-family="sans-serif" font-size="14" lengthAdjust="spacing" textLength="168.7725" x="250.61" y="813.4457">Ratings &amp; Leaderboards</text></g><!--entity N--><g class="entity" data-entity="N" data-source-line="28" data-uid="ent0011" id="entity_N"><rect fill="#E8F5E8" height="78.8906" rx="2.5" ry="2.5" style="stroke:#1B5E20;stroke-width:2;" width="176.5205" x="267.74" y="903.7469"/><rect fill="#E8F5E8" height="10" style="stroke:#1B5E20;stroke-width:2;" width="15" x="424.2605" y="908.7469"/><rect fill="#E8F5E8" height="2" style="stroke:#1B5E20;stroke-width:2;" width="4" x="422.2605" y="910.7469"/><rect fill="#E8F5E8" height="2" style="stroke:#1B5E20;stroke-width:2;" width="4" x="422.2605" y="914.7469"/><text fill="#000000" font-family="sans-serif" font-size="14" font-style="italic" lengthAdjust="spacing" textLength="124.2158" x="288.8923" y="936.742">&#171;SupportService&#187;</text><text fill="#000000" font-family="sans-serif" font-size="14" lengthAdjust="spacing" textLength="136.5205" x="282.74" y="953.0389">Notification Service</text><text fill="#000000" font-family="sans-serif" font-size="14" lengthAdjust="spacing" textLength="87.623" x="282.74" y="969.3357">Notifications</text></g><!--entity RP--><g class="entity" data-entity="RP" data-source-line="29" data-uid="ent0012" id="entity_RP"><rect fill="#E8F5E8" height="78.8906" rx="2.5" ry="2.5" style="stroke:#1B5E20;stroke-width:2;" width="178.667" x="21.67" y="747.8569"/><rect fill="#E8F5E8" height="10" style="stroke:#1B5E20;stroke-width:2;" width="15" x="180.337" y="752.8569"/><rect fill="#E8F5E8" height="2" style="stroke:#1B5E20;stroke-width:2;" width="4" x="178.337" y="754.8569"/><rect fill="#E8F5E8" height="2" style="stroke:#1B5E20;stroke-width:2;" width="4" x="178.337" y="758.8569"/><text fill="#000000" font-family="sans-serif" font-size="14" font-style="italic" lengthAdjust="spacing" textLength="124.2158" x="43.8956" y="780.852">&#171;SupportService&#187;</text><text fill="#000000" font-family="sans-serif" font-size="14" lengthAdjust="spacing" textLength="104.1729" x="36.67" y="797.1489">Replay Service</text><text fill="#000000" font-family="sans-serif" font-size="14" lengthAdjust="spacing" textLength="138.667" x="36.67" y="813.4457">Replays &amp; Analytics</text></g><!--link WC to A--><g class="link" data-entity-1="WC" data-entity-2="A" data-source-line="33" data-uid="lnk13" id="link_WC_A"><path d="M309.43,157.3769 C310.93,173.2069 314.41,191.2769 322,206.1869 C331.65,225.1369 342.4646,238.3619 357.7146,252.6019" fill="none" id="WC-to-A" style="stroke:#181818;stroke-width:1;"/><polygon fill="#181818" points="362.1,256.6969,358.2519,247.6309,358.4455,253.2844,352.792,253.4781,362.1,256.6969" style="stroke:#181818;stroke-width:1;"/><text fill="#000000" font-family="sans-serif" font-size="13" lengthAdjust="spacing" textLength="71.3159" x="323" y="202.2538">HTTP/REST</text></g><!--link WC to T--><g class="link" data-entity-1="WC" data-entity-2="T" data-source-line="34" data-uid="lnk14" id="link_WC_T"><path d="M358.02,157.5769 C370.29,166.1369 383.74,174.6069 397,181.1869 C440.81,202.9369 463.55,183.9369 502,214.1869 C568.92,266.8269 609.5259,354.5192 629.5359,407.0992" fill="none" id="WC-to-T" style="stroke:#181818;stroke-width:1;"/><polygon fill="#181818" points="631.67,412.7069,632.2073,402.8727,629.8916,408.0338,624.7305,405.7181,631.67,412.7069" style="stroke:#181818;stroke-width:1;"/><text fill="#000000" font-family="sans-serif" font-size="13" lengthAdjust="spacing" textLength="71.3159" x="597" y="301.1938">HTTP/REST</text></g><!--link WC to R--><g class="link" data-entity-1="WC" data-entity-2="R" data-source-line="35" data-uid="lnk15" id="link_WC_R"><path d="M249.21,157.6669 C208.51,189.3469 162,238.1269 162,295.6269 C162,295.6269 162,295.6269 162,609.4069 C162,657.3069 191.76,662.3669 225,696.8569 C242.55,715.0669 259.148,729.0863 278.698,743.8163" fill="none" id="WC-to-R" style="stroke:#181818;stroke-width:1;"/><polygon fill="#181818" points="283.49,747.4269,278.709,738.8163,279.4966,744.4181,273.8949,745.2057,283.49,747.4269" style="stroke:#181818;stroke-width:1;"/><text fill="#000000" font-family="sans-serif" font-size="13" lengthAdjust="spacing" textLength="71.3159" x="163" y="457.0838">HTTP/REST</text></g><!--link WC to RP--><g class="link" data-entity-1="WC" data-entity-2="RP" data-source-line="36" data-uid="lnk16" id="link_WC_RP"><path d="M237.69,130.2069 C151.82,148.5569 19,193.4569 19,295.6269 C19,295.6269 19,295.6269 19,609.4069 C19,661.5069 47.137,708.7348 73.337,742.7248" fill="none" id="WC-to-RP" style="stroke:#181818;stroke-width:1;"/><polygon fill="#181818" points="77,747.4769,74.6736,737.9067,73.9475,743.5168,68.3374,742.7907,77,747.4769" style="stroke:#181818;stroke-width:1;"/><text fill="#000000" font-family="sans-serif" font-size="13" lengthAdjust="spacing" textLength="71.3159" x="20" y="457.0838">HTTP/REST</text></g><!--link GC to G--><g class="link" data-entity-1="GC" data-entity-2="G" data-source-line="38" data-uid="lnk17" id="link_GC_G"><path d="M454.68,157.5969 C441.78,175.4969 424.1,195.1669 403,206.1869 C387.36,214.3569 336.26,201.4869 324,214.1869 C228.83,312.7569 327.853,485.5443 381.333,563.7443" fill="none" id="GC-to-G" style="stroke:#181818;stroke-width:1;"/><polygon fill="#181818" points="384.72,568.6969,382.9412,559.01,381.8975,564.5697,376.3378,563.526,384.72,568.6969" style="stroke:#181818;stroke-width:1;"/><text fill="#000000" font-family="sans-serif" font-size="13" lengthAdjust="spacing" textLength="73.0806" x="294" y="379.1438">WebSocket</text></g><!--link GC to N--><g class="link" data-entity-1="GC" data-entity-2="N" data-source-line="39" data-uid="lnk18" id="link_GC_N"><path d="M541.48,118.1469 C657.74,120.7569 893,144.6669 893,295.6269 C893,295.6269 893,295.6269 893,788.2969 C893,880.4369 603.1728,920.0063 450.6428,934.5763" fill="none" id="GC-to-N" style="stroke:#181818;stroke-width:1;"/><polygon fill="#181818" points="444.67,935.1469,454.0096,938.2729,449.6473,934.6714,453.2489,930.3092,444.67,935.1469" style="stroke:#181818;stroke-width:1;"/><text fill="#000000" font-family="sans-serif" font-size="13" lengthAdjust="spacing" textLength="108.5513" x="894" y="535.0338">WebSocket/Push</text></g><!--link A to T--><g class="link" data-entity-1="A" data-entity-2="T" data-source-line="42" data-uid="lnk19" id="link_A_T"><path d="M406.69,336.3969 C406.21,352.3969 408.71,370.1669 419,383.0769 C426.32,392.2469 466.5158,405.3121 515.1158,418.7121" fill="none" id="A-to-T" style="stroke:#181818;stroke-width:1;stroke-dasharray:7,7;"/><polygon fill="#181818" points="520.9,420.3069,513.287,414.0585,516.0799,418.9779,511.1605,421.7708,520.9,420.3069" style="stroke:#181818;stroke-width:1;"/><text fill="#000000" font-family="sans-serif" font-size="13" lengthAdjust="spacing" textLength="108.9956" x="420" y="379.1438">Token Validation</text></g><!--link A to G--><g class="link" data-entity-1="A" data-entity-2="G" data-source-line="43" data-uid="lnk20" id="link_A_G"><path d="M404.99,336.4469 C400.79,358.7469 396.1,387.3669 394,413.0769 C391.14,448.0169 391.14,457.0169 394,491.9669 C396.1,517.6769 399.68,540.3905 403.88,562.7005" fill="none" id="A-to-G" style="stroke:#181818;stroke-width:1;stroke-dasharray:7,7;"/><polygon fill="#181818" points="404.99,568.5969,407.2559,559.0122,404.065,563.6832,399.394,560.4923,404.99,568.5969" style="stroke:#181818;stroke-width:1;"/><text fill="#000000" font-family="sans-serif" font-size="13" lengthAdjust="spacing" textLength="108.9956" x="395" y="457.0838">Token Validation</text></g><!--link T to G--><g class="link" data-entity-1="T" data-entity-2="G" data-source-line="45" data-uid="lnk21" id="link_T_G"><path d="M520.9,488.4169 C479.03,501.2269 441.01,514.4169 434,521.9669 C422.35,534.4969 417.7744,546.4854 415.3044,562.6854" fill="none" id="T-to-G" style="stroke:#181818;stroke-width:1;"/><polygon fill="#181818" points="414.4,568.6169,419.7108,560.3226,415.1536,563.674,411.8022,559.1168,414.4,568.6169" style="stroke:#181818;stroke-width:1;"/><text fill="#000000" font-family="sans-serif" font-size="13" lengthAdjust="spacing" textLength="93.0884" x="435" y="535.0338">Create Games</text></g><!--link T to R--><g class="link" data-entity-1="T" data-entity-2="R" data-source-line="46" data-uid="lnk22" id="link_T_R"><path d="M622.53,491.9869 C586.83,552.2169 517.67,665.2069 483,696.8569 C462.24,715.8069 442.0726,730.0194 418.5526,744.2594" fill="none" id="T-to-R" style="stroke:#181818;stroke-width:1;"/><polygon fill="#181818" points="413.42,747.3669,423.1905,746.1274,417.6972,744.7773,419.0472,739.2839,413.42,747.3669" style="stroke:#181818;stroke-width:1;"/><text fill="#000000" font-family="sans-serif" font-size="13" lengthAdjust="spacing" textLength="131.3394" x="576" y="612.9738">Tournament Results</text></g><!--link T to N--><g class="link" data-entity-1="T" data-entity-2="N" data-source-line="47" data-uid="lnk23" id="link_T_N"><path d="M676.39,492.3369 C691.56,513.6069 708.15,541.2269 716,568.9669 C748.32,683.1969 731.84,744.7369 646,826.7469 C590.46,879.8069 513.3268,908.0354 450.3568,923.9654" fill="none" id="T-to-N" style="stroke:#181818;stroke-width:1;"/><polygon fill="#181818" points="444.54,925.4369,454.2461,927.1074,449.3873,924.2106,452.2841,919.3518,444.54,925.4369" style="stroke:#181818;stroke-width:1;"/><text fill="#000000" font-family="sans-serif" font-size="13" lengthAdjust="spacing" textLength="127.8291" x="731" y="692.9238">Tournament Events</text></g><!--link G to R--><g class="link" data-entity-1="G" data-entity-2="R" data-source-line="49" data-uid="lnk24" id="link_G_R"><path d="M396.98,648.2269 C384.81,677.7269 370.4279,712.5502 358.2679,742.0302" fill="none" id="G-to-R" style="stroke:#181818;stroke-width:1;"/><polygon fill="#181818" points="355.98,747.5769,363.1096,740.7821,357.8866,742.9547,355.7141,737.7316,355.98,747.5769" style="stroke:#181818;stroke-width:1;"/><text fill="#000000" font-family="sans-serif" font-size="13" lengthAdjust="spacing" textLength="90.3589" x="384" y="692.9238">Game Results</text></g><!--link G to N--><g class="link" data-entity-1="G" data-entity-2="N" data-source-line="50" data-uid="lnk25" id="link_G_N"><path d="M461.81,648.0969 C470.45,657.4969 478.2,668.2169 483,679.8569 C503.93,730.6069 643.54,577.8569 458,873.7469 C450.92,885.0369 445.9168,891.1633 435.2868,899.6133" fill="none" id="G-to-N" style="stroke:#181818;stroke-width:1;"/><polygon fill="#181818" points="430.59,903.3469,440.1243,900.8777,434.504,900.2355,435.1462,894.6153,430.59,903.3469" style="stroke:#181818;stroke-width:1;"/><text fill="#000000" font-family="sans-serif" font-size="13" lengthAdjust="spacing" textLength="86.8486" x="551" y="791.8638">Game Events</text></g><!--link G to RP--><g class="link" data-entity-1="G" data-entity-2="RP" data-source-line="51" data-uid="lnk26" id="link_G_RP"><path d="M340.82,640.6369 C303.25,657.8969 257.13,680.7069 218,704.8569 C197.44,717.5469 180.7372,729.5918 162.5072,743.8418" fill="none" id="G-to-RP" style="stroke:#181818;stroke-width:1;"/><polygon fill="#181818" points="157.78,747.5369,167.3342,745.1456,161.7193,744.4576,162.4073,738.8427,157.78,747.5369" style="stroke:#181818;stroke-width:1;"/><text fill="#000000" font-family="sans-serif" font-size="13" lengthAdjust="spacing" textLength="73.874" x="260" y="692.9238">Game Data</text></g><!--link R to N--><g class="link" data-entity-1="R" data-entity-2="N" data-source-line="53" data-uid="lnk27" id="link_R_N"><path d="M344.04,827.1369 C346.46,850.4669 348.9207,874.0789 351.3407,897.3989" fill="none" id="R-to-N" style="stroke:#181818;stroke-width:1;"/><polygon fill="#181818" points="351.96,903.3669,355.0097,894.0021,351.4439,898.3936,347.0524,894.8278,351.96,903.3669" style="stroke:#181818;stroke-width:1;"/><text fill="#000000" font-family="sans-serif" font-size="13" lengthAdjust="spacing" textLength="100.1851" x="349" y="869.8138">Rating Updates</text></g><!--SRC=[TLFBRjim4BphAxOgq0TGmt5gesuH653aG3qaXY4hzI79WQPM4c6P54WgGL3qtqlAUlWX7pKxipFBNNs8CM4SmH_xObS8Zbn_uMI7ts9Kz2lG1WGB0b7Wse8BDpSjVpPp7BLbl22Ix0uKVns0MqAtgHGbZtsH2sbKEQiay157oIJ1NewGk4BvoYXQOl8T9ycaZxWgYq98VS35QJB1gUKA6QCyCxqQJNxyt9pLZmt7P3IUqbFIkTbeCy7hgvONPOnkEIe5ryu_nz5CvmWFZ4gXzXhm9CsOHgfBYJ1d93KFvZY56Oka2Eu-fdAhbtjQumRso3E_bUBDD1c6IAX-WOE9p4RMlgK7TZyDtqlj0hoYEEK6letMEPh1ePweyVLAdJNOCtyqjWe-WKMhPaTFPJfwLXE9Kje3CQQjiiEi_e5ecks8EPEqjqtKpj0sgBxkHSfeho8ucgJUpkam8T76iUkv_xQ1xf6OdMq4aR6o_S_MQon2ss8XD4iODKB1kqQ7w4Nzeeg0HKxU3o9KtzMRSfA_QqOl-o_jZ9_hjO8lE3V7OnsTjG-3mGmy-0NkxoXQ3iExLUGsSDGFXnVWvGdk1Fj2O75pXoj1jwZT1buSmSDbgJBNngopmnmBv35oob0v7WoUOg8oZ5-QO97O8eS_96TnzNxk2Ide9pbH5ygNI3I2FH7breLmBsilCKHLvhejBqxATw_LpsQ6xTJLoRMweDDLXKOH7BnQLPWJJKoZiEFNT_TOcF0cuNy0]--></g></svg>